HIERARCHY
ROOT Hips
{
	OFFSET 0.000000 121.760803 0.000000
	CHANNELS 6 Xposition Yposition Zposition Xrotation Yrotation Zrotation 
	JOINT Spine
	{
		OFFSET 0.072000 7.257294 -0.789700
		CHANNELS 3 Xrotation Yrotation Zrotation
		JOINT Spine1
		{
			OFFSET 0.000000 12.508769 -0.658067
			CHANNELS 3 Xrotation Yrotation Zrotation
			JOINT Spine1_split
			{
				OFFSET 0.000000 12.508769 -0.658067
				CHANNELS 3 Xrotation Yrotation Zrotation
				JOINT Spine2
				{
					OFFSET 0.000000 12.508769 -0.658067
					CHANNELS 3 Xrotation Yrotation Zrotation
					JOINT Neck
					{
						OFFSET 0.000000 14.033295 7.520400
						CHANNELS 3 Xrotation Yrotation Zrotation
						JOINT Head
						{
							OFFSET 0.000000 8.198502 5.703100
							CHANNELS 3 Xrotation Yrotation Zrotation
							JOINT HeadTop_End
							{
								OFFSET 0.000000 17.760803 13.332701
								CHANNELS 3 Xrotation Yrotation Zrotation
								End Site
								{
									OFFSET 0.000000 0.000000 0.000000
								}
							}
						}
					}
					JOINT LeftShoulder
					{
						OFFSET 6.292450 5.785301 -0.669000
						CHANNELS 3 Xrotation Yrotation Zrotation
						JOINT LeftShoulder_split
						{
							OFFSET 6.292450 5.785301 -0.669000
							CHANNELS 3 Xrotation Yrotation Zrotation
							JOINT LeftArm
							{
								OFFSET 13.907140 -6.093903 1.965100
								CHANNELS 3 Xrotation Yrotation Zrotation
								JOINT LeftForeArm
								{
									OFFSET 34.140198 0.000000 0.000000
									CHANNELS 3 Xrotation Yrotation Zrotation
									JOINT LeftHand
									{
										OFFSET 40.960209 0.000000 0.000000
										CHANNELS 3 Xrotation Yrotation Zrotation
										JOINT LeftHandThumb1
										{
											OFFSET 10.006996 -7.170425 9.573125
											CHANNELS 3 Xrotation Yrotation Zrotation
											JOINT LeftHandThumb2
											{
												OFFSET 1.835007 -1.059448 1.059443
												CHANNELS 3 Xrotation Yrotation Zrotation
												JOINT LeftHandThumb3
												{
													OFFSET 2.112267 -1.219513 1.219518
													CHANNELS 3 Xrotation Yrotation Zrotation
													JOINT LeftHandThumb4
													{
														OFFSET 4.843811 -2.796570 2.796576
														CHANNELS 3 Xrotation Yrotation Zrotation
														End Site
														{
															OFFSET 0.000000 0.000000 0.000000
														}
													}
												}
											}
										}
										JOINT LeftHandIndex1
										{
											OFFSET 18.389847 -0.922348 4.596882
											CHANNELS 3 Xrotation Yrotation Zrotation
											JOINT LeftHandIndex2
											{
												OFFSET 4.711273 0.000000 0.000000
												CHANNELS 3 Xrotation Yrotation Zrotation
												JOINT LeftHandIndex3
												{
													OFFSET 2.886131 0.000000 0.000000
													CHANNELS 3 Xrotation Yrotation Zrotation
													JOINT LeftHandIndex4
													{
														OFFSET 6.145912 0.000000 0.000000
														CHANNELS 3 Xrotation Yrotation Zrotation
														End Site
														{
															OFFSET 0.000000 0.000000 0.000000
														}
													}
												}
											}
										}
										JOINT LeftHandMiddle1
										{
											OFFSET 18.013008 0.000000 0.000000
											CHANNELS 3 Xrotation Yrotation Zrotation
											JOINT LeftHandMiddle2
											{
												OFFSET 4.946693 0.000000 0.000000
												CHANNELS 3 Xrotation Yrotation Zrotation
												JOINT LeftHandMiddle3
												{
													OFFSET 3.342232 0.000000 0.000000
													CHANNELS 3 Xrotation Yrotation Zrotation
													JOINT LeftHandMiddle4
													{
														OFFSET 4.461754 0.000000 0.000000
														CHANNELS 3 Xrotation Yrotation Zrotation
														End Site
														{
															OFFSET 0.000000 0.000000 0.000000
														}
													}
												}
											}
										}
										JOINT LeftHandRing1
										{
											OFFSET 15.849892 -0.102921 -4.126150
											CHANNELS 3 Xrotation Yrotation Zrotation
											JOINT LeftHandRing2
											{
												OFFSET 3.527054 0.000000 0.000000
												CHANNELS 3 Xrotation Yrotation Zrotation
												JOINT LeftHandRing3
												{
													OFFSET 2.961098 0.000000 0.000000
													CHANNELS 3 Xrotation Yrotation Zrotation
													JOINT LeftHandRing4
													{
														OFFSET 4.927200 0.000000 0.000000
														CHANNELS 3 Xrotation Yrotation Zrotation
														End Site
														{
															OFFSET 0.000000 0.000000 0.000000
														}
													}
												}
											}
										}
										JOINT LeftHandPinky1
										{
											OFFSET 12.791824 -0.832031 -6.799156
											CHANNELS 3 Xrotation Yrotation Zrotation
											JOINT LeftHandPinky2
											{
												OFFSET 3.327133 0.000000 0.000000
												CHANNELS 3 Xrotation Yrotation Zrotation
												JOINT LeftHandPinky3
												{
													OFFSET 3.014900 0.000000 0.000000
													CHANNELS 3 Xrotation Yrotation Zrotation
													JOINT LeftHandPinky4
													{
														OFFSET 5.847786 0.000000 0.000000
														CHANNELS 3 Xrotation Yrotation Zrotation
														End Site
														{
															OFFSET 0.000000 0.000000 0.000000
														}
													}
												}
											}
										}
									}
								}
							}
						}
					}
					JOINT RightShoulder
					{
						OFFSET -6.292450 5.785301 -0.669000
						CHANNELS 3 Xrotation Yrotation Zrotation
						JOINT RightShoulder_split
						{
							OFFSET -6.292450 5.785301 -0.669000
							CHANNELS 3 Xrotation Yrotation Zrotation
							JOINT RightArm
							{
								OFFSET -13.907140 -6.093903 1.965100
								CHANNELS 3 Xrotation Yrotation Zrotation
								JOINT RightForeArm
								{
									OFFSET -34.140198 0.000000 0.000000
									CHANNELS 3 Xrotation Yrotation Zrotation
									JOINT RightHand
									{
										OFFSET -40.960209 0.000000 0.000000
										CHANNELS 3 Xrotation Yrotation Zrotation
										JOINT RightHandThumb1
										{
											OFFSET -10.007050 -7.170456 9.573117
											CHANNELS 3 Xrotation Yrotation Zrotation
											JOINT RightHandThumb2
											{
												OFFSET -1.835007 -1.059448 1.059443
												CHANNELS 3 Xrotation Yrotation Zrotation
												JOINT RightHandThumb3
												{
													OFFSET -2.112267 -1.219513 1.219518
													CHANNELS 3 Xrotation Yrotation Zrotation
													JOINT RightHandThumb4
													{
														OFFSET -4.843834 -2.796585 2.796590
														CHANNELS 3 Xrotation Yrotation Zrotation
														End Site
														{
															OFFSET 0.000000 0.000000 0.000000
														}
													}
												}
											}
										}
										JOINT RightHandIndex1
										{
											OFFSET -18.389870 -0.922424 4.596786
											CHANNELS 3 Xrotation Yrotation Zrotation
											JOINT RightHandIndex2
											{
												OFFSET -4.711273 0.000000 0.000000
												CHANNELS 3 Xrotation Yrotation Zrotation
												JOINT RightHandIndex3
												{
													OFFSET -2.886131 0.000000 0.000000
													CHANNELS 3 Xrotation Yrotation Zrotation
													JOINT RightHandIndex4
													{
														OFFSET -6.145920 0.000000 0.000000
														CHANNELS 3 Xrotation Yrotation Zrotation
														End Site
														{
															OFFSET 0.000000 0.000000 0.000000
														}
													}
												}
											}
										}
										JOINT RightHandMiddle1
										{
											OFFSET -18.013008 0.000000 0.000000
											CHANNELS 3 Xrotation Yrotation Zrotation
											JOINT RightHandMiddle2
											{
												OFFSET -4.946693 0.000000 0.000000
												CHANNELS 3 Xrotation Yrotation Zrotation
												JOINT RightHandMiddle3
												{
													OFFSET -3.342232 0.000000 0.000000
													CHANNELS 3 Xrotation Yrotation Zrotation
													JOINT RightHandMiddle4
													{
														OFFSET -4.461754 0.000000 0.000000
														CHANNELS 3 Xrotation Yrotation Zrotation
														End Site
														{
															OFFSET 0.000000 0.000000 0.000000
														}
													}
												}
											}
										}
										JOINT RightHandRing1
										{
											OFFSET -15.849876 -0.102936 -4.126237
											CHANNELS 3 Xrotation Yrotation Zrotation
											JOINT RightHandRing2
											{
												OFFSET -3.527054 0.000000 0.000000
												CHANNELS 3 Xrotation Yrotation Zrotation
												JOINT RightHandRing3
												{
													OFFSET -2.961098 0.000000 0.000000
													CHANNELS 3 Xrotation Yrotation Zrotation
													JOINT RightHandRing4
													{
														OFFSET -4.927200 0.000000 0.000000
														CHANNELS 3 Xrotation Yrotation Zrotation
														End Site
														{
															OFFSET 0.000000 0.000000 0.000000
														}
													}
												}
											}
										}
										JOINT RightHandPinky1
										{
											OFFSET -12.791786 -0.832077 -6.799222
											CHANNELS 3 Xrotation Yrotation Zrotation
											JOINT RightHandPinky2
											{
												OFFSET -3.327133 0.000000 0.000000
												CHANNELS 3 Xrotation Yrotation Zrotation
												JOINT RightHandPinky3
												{
													OFFSET -3.014900 0.000000 0.000000
													CHANNELS 3 Xrotation Yrotation Zrotation
													JOINT RightHandPinky4
													{
														OFFSET -5.847786 0.000000 0.000000
														CHANNELS 3 Xrotation Yrotation Zrotation
														End Site
														{
															OFFSET 0.000000 0.000000 0.000000
														}
													}
												}
											}
										}
									}
								}
							}
						}
					}
				}
			}
		}
	}
	JOINT LeftUpLeg
	{
		OFFSET 13.026900 -6.336304 -1.092800
		CHANNELS 3 Xrotation Yrotation Zrotation
		JOINT LeftLeg
		{
			OFFSET 0.524474 -46.096886 9.782700
			CHANNELS 3 Xrotation Yrotation Zrotation
			JOINT LeftFoot
			{
				OFFSET -0.524474 -53.427422 -12.948200
				CHANNELS 3 Xrotation Yrotation Zrotation
				JOINT LeftToeBase
				{
					OFFSET 0.192200 -14.009700 16.364100
					CHANNELS 3 Xrotation Yrotation Zrotation
					JOINT LeftToe_End
					{
						OFFSET -1.784700 -0.561700 9.474800
						CHANNELS 3 Xrotation Yrotation Zrotation
						End Site
						{
							OFFSET 0.000000 0.000000 0.000000
						}
					}
				}
			}
		}
	}
	JOINT RightUpLeg
	{
		OFFSET -12.883000 -6.336304 -1.092800
		CHANNELS 3 Xrotation Yrotation Zrotation
		JOINT RightLeg
		{
			OFFSET -0.524587 -46.096825 9.782800
			CHANNELS 3 Xrotation Yrotation Zrotation
			JOINT RightFoot
			{
				OFFSET 0.524587 -53.427383 -12.948300
				CHANNELS 3 Xrotation Yrotation Zrotation
				JOINT RightToeBase
				{
					OFFSET -0.192200 -14.009700 16.364100
					CHANNELS 3 Xrotation Yrotation Zrotation
					JOINT RightToe_End
					{
						OFFSET 1.784700 -0.561700 9.474800
						CHANNELS 3 Xrotation Yrotation Zrotation
						End Site
						{
							OFFSET 0.000000 0.000000 0.000000
						}
					}
				}
			}
		}
	}
}
MOTION
Frames: 4
Frame Time: 0.016667
0.639030 84.874763 1.770123 16.384912 -10.523935 -4.795079 10.961772 16.095947 -9.084339 2.878197 4.087947 -0.126405 0.000000 0.000000 0.000000 2.848464 4.312290 -0.311450 -0.690421 -2.335957 4.374013 -6.949599 -9.364420 11.092254 -0.000001 0.000000 -0.000000 1.187661 -1.370115 -14.873635 0.000000 0.000000 0.000000 -9.759254 30.208407 -41.048867 0.000002 -11.762789 0.000003 17.749462 -17.726728 21.007626 -5.456649 -6.701471 3.223894 8.077442 27.563307 1.095388 -10.020024 -14.017843 7.739298 0.000001 -0.000001 0.000001 -1.812260 -6.056781 -12.583250 0.237185 1.651682 -16.342790 0.250139 1.695207 -16.786213 0.000001 -0.000000 0.000001 -1.249861 -0.637582 -18.645254 0.387939 2.098234 -20.947903 0.466482 2.292745 -22.997839 -0.000000 0.000002 -0.000002 0.049650 3.688804 -26.109467 0.502169 2.375012 -23.874296 0.587674 2.559334 -25.860520 0.000001 -0.000002 0.000001 0.229229 4.355142 -33.121189 0.780421 2.923325 -29.888682 0.780018 2.922630 -29.880865 -0.000003 0.000003 -0.000005 2.870335 11.957081 -6.152306 0.000000 0.000000 0.000000 -33.803644 70.877549 6.927793 -0.000475 94.709534 0.000483 17.111796 20.467020 -11.105439 -15.303025 26.927630 3.986242 9.854549 -45.625974 -5.441337 -7.056234 3.100998 -14.195931 0.000000 0.000000 -0.000001 0.782863 -4.716613 13.868240 0.169902 -1.247734 15.507875 0.169803 -1.247378 15.503209 -0.000002 -0.000001 -0.000001 1.576769 -6.016269 32.822273 0.816465 -2.636011 34.413635 0.910223 -2.767783 36.402839 0.000000 0.000000 -0.000000 2.347863 -6.542684 43.827415 1.218028 -3.142196 42.367865 1.329186 -3.259707 44.358455 -0.000004 -0.000000 0.000001 3.008732 -7.082349 54.088753 1.765795 -3.652474 51.591458 1.765245 -3.652030 51.582658 -0.000001 -0.000002 -0.000004 -84.990291 -3.004153 5.541677 46.964155 9.824566 -3.555064 15.885932 25.721338 10.883602 -4.472091 -0.000009 -0.000006 0.000000 -0.000001 -0.000000 10.210158 -14.094638 2.956470 42.390609 -6.019972 9.840067 -23.008426 -11.036711 13.701190 -44.289460 -0.000013 0.000010 0.000000 0.000001 0.000000 
-0.277151 84.512688 3.274364 17.947654 -10.257886 -4.626531 11.467865 15.579533 -9.469682 2.886044 3.978105 -0.232998 0.000000 0.000000 0.000000 2.857340 4.195418 -0.413706 -0.775489 -2.317380 4.285787 -7.176069 -9.471885 10.982038 0.000000 -0.000000 -0.000000 1.200893 -1.794890 -15.693775 0.000000 0.000000 0.000000 -10.576670 29.125122 -39.831638 -0.000001 -14.202289 0.000008 18.131917 -16.995292 22.228601 -5.549652 -6.736312 3.295555 8.061873 27.560107 1.140150 -10.020019 -14.017837 7.739299 0.000001 -0.000001 0.000001 -1.804124 -6.064282 -12.527713 0.233819 1.640172 -16.225630 0.245529 1.679842 -16.629668 -0.000002 0.000000 -0.000000 -1.242798 -0.654483 -18.510842 0.385026 2.090617 -20.868233 0.461236 2.280369 -22.866497 -0.000001 0.000001 -0.000001 0.044781 3.667155 -25.898580 0.498595 2.366935 -23.787831 0.584512 2.552807 -25.789594 -0.000001 0.000000 -0.000003 0.274472 4.440099 -32.904921 0.769655 2.904548 -29.677052 0.771066 2.907034 -29.704967 -0.000001 0.000002 -0.000000 2.895094 12.404893 -5.753552 0.000000 0.000000 0.000000 -30.219984 69.244267 3.681442 -0.000150 96.122331 0.000157 20.583421 21.050443 -13.126473 -15.466373 26.941191 3.833659 9.820592 -45.228662 -5.419522 -7.056231 3.100994 -14.195935 0.000000 -0.000002 -0.000000 0.750056 -4.663066 13.088636 0.153304 -1.186296 14.726132 0.153104 -1.185540 14.716614 0.000002 0.000003 -0.000000 1.442557 -5.897368 30.789574 0.743597 -2.526491 32.796099 0.834093 -2.661542 34.795156 -0.000000 -0.000002 0.000000 2.163461 -6.430869 41.453729 1.092394 -2.998887 40.023027 1.198315 -3.120477 42.007053 0.000001 0.000002 0.000002 2.840320 -7.022728 51.977279 1.490542 -3.416669 47.129234 1.523324 -3.446760 47.676602 -0.000002 0.000001 -0.000002 -87.210362 -3.141713 5.605450 49.123830 9.241110 -3.450221 14.766534 25.645760 10.196002 -4.472085 0.000009 0.000001 -0.000000 -0.000001 0.000000 4.109990 -13.507934 0.270205 47.735137 -5.657864 9.964905 -20.035037 -11.494902 14.536111 -41.358885 -0.004245 0.314129 0.000000 -0.000001 0.000000 
-1.189506 84.250107 4.830166 19.552559 -9.964670 -4.497849 11.969711 14.997415 -9.852386 2.894017 3.864282 -0.347310 0.000000 0.000000 0.000000 2.866436 4.074823 -0.524101 -0.868211 -2.297580 4.191816 -7.411903 -9.572893 10.876491 -0.000001 -0.000000 -0.000000 1.202255 -2.183948 -16.571275 0.000000 0.000000 0.000000 -11.438033 28.007285 -38.630853 -0.000004 -16.749039 0.000011 18.480072 -16.138074 23.428242 -5.643235 -6.771496 3.367538 8.046198 27.556905 1.185202 -10.020022 -14.017839 7.739297 -0.000001 0.000000 -0.000000 -1.795914 -6.071800 -12.471871 0.230459 1.628584 -16.107801 0.241300 1.665635 -16.484872 0.000001 -0.000001 0.000000 -1.235642 -0.671459 -18.375637 0.382575 2.084165 -20.800779 0.456987 2.270290 -22.759645 0.000001 0.000004 -0.000000 0.039984 3.645358 -25.686415 0.495633 2.360209 -23.716036 0.583115 2.549907 -25.758107 0.000001 -0.000001 0.000000 0.319292 4.525953 -32.687335 0.758929 2.885671 -29.464712 0.763447 2.893641 -29.554235 -0.000001 0.000001 -0.000003 2.921964 12.894767 -5.335071 0.000000 0.000000 0.000000 -27.021048 67.470221 0.787287 -0.000172 97.583664 0.000160 24.180837 21.456160 -15.177645 -15.633611 26.955504 3.677443 9.785832 -44.821785 -5.397005 -7.056235 3.101000 -14.195935 0.000000 0.000003 -0.000001 0.717151 -4.607646 12.288698 0.137022 -1.122549 13.918172 0.136620 -1.120940 13.897792 -0.000002 -0.000001 -0.000000 1.306885 -5.767767 28.660259 0.670830 -2.409932 31.106625 0.758244 -2.549053 33.126841 -0.000000 -0.000000 -0.000001 1.971111 -6.299212 38.969395 0.968388 -2.844893 37.590749 1.068252 -2.969920 39.559114 0.000000 0.000001 -0.000001 2.670726 -6.955880 49.823720 1.221428 -3.145912 42.430122 1.287259 -3.216349 43.616413 0.000001 -0.000001 -0.000000 -89.296152 -3.294334 5.674234 51.107307 8.630621 -3.360492 13.630209 25.590228 9.530844 -4.472087 -0.000002 -0.000003 0.000000 -0.000002 -0.000000 -1.629863 -12.778668 -2.365183 52.090195 -4.866057 10.097527 -16.041502 -11.748561 15.179300 -42.270354 -0.367668 4.074127 -0.000000 0.000001 0.000001 
-2.098713 84.073586 6.432285 21.194280 -9.649440 -4.407327 12.464837 14.362325 -10.226683 2.901933 3.747262 -0.467802 0.000000 0.000000 0.000000 2.875553 3.951232 -0.641010 -0.967447 -2.276752 4.092978 -7.655645 -9.668307 10.774951 0.000000 -0.000000 0.000000 1.192198 -2.545273 -17.494051 0.000000 0.000000 0.000000 -12.336922 26.855240 -37.455132 -0.000006 -19.379972 -0.000006 18.788826 -15.181793 24.605558 -5.737359 -6.807006 3.439782 8.030441 27.553644 1.230509 -10.020019 -14.017837 7.739297 -0.000000 0.000002 0.000001 -1.787656 -6.079364 -12.415707 0.227105 1.616922 -15.989345 0.237417 1.652461 -16.350706 0.000000 0.000001 -0.000000 -1.228404 -0.688524 -18.239672 0.380519 2.078753 -20.744263 0.453646 2.262286 -22.674847 -0.000001 0.000002 -0.000000 0.035241 3.623437 -25.473088 0.493222 2.354713 -23.657456 0.583287 2.550268 -25.762038 -0.000001 -0.000001 0.000002 0.363621 4.612635 -32.468493 0.748249 2.866695 -29.251733 0.756991 2.882234 -29.426074 0.000001 0.000002 -0.000004 2.947551 13.415550 -4.901031 0.000000 0.000000 0.000000 -24.203556 65.584030 -1.746837 -0.000174 99.080746 0.000175 27.863630 21.684524 -17.233049 -15.804294 26.970520 3.518020 9.750378 -44.406492 -5.373810 -7.056235 3.100996 -14.195937 0.000000 0.000001 0.000001 0.684508 -4.550874 11.475705 0.121335 -1.057234 13.093346 0.120686 -1.054450 13.058271 0.000000 0.000001 0.000001 1.172684 -5.629149 26.469225 0.599702 -2.287994 29.371087 0.684057 -2.431691 31.419608 0.000001 -0.000001 -0.000001 1.777379 -6.150708 36.414573 0.848402 -2.682003 35.102347 0.941696 -2.809901 37.049405 0.000000 -0.000002 0.000001 2.501531 -6.882151 47.643390 0.967619 -2.843873 37.575104 1.063000 -2.963564 39.457661 -0.000001 0.000001 -0.000000 -91.258861 -3.461017 5.749196 52.933850 7.995807 -3.283867 12.475249 25.552720 8.885920 -4.472080 -0.000001 0.000002 0.000000 -0.000001 -0.000000 -7.026060 -11.974218 -4.921430 55.488699 -3.616148 10.243045 -11.355974 -11.842409 15.553403 -43.175825 -1.409081 8.190899 0.000000 -0.000002 0.000000 
